<?xml version="1.0" encoding="UTF-8"?>
<svg width="329px" height="130px" viewBox="0 0 329 130" version="1.1" xmlns="http://www.w3.org/2000/svg" xmlns:xlink="http://www.w3.org/1999/xlink">
    <!-- Generator: Sketch 60 (88103) - https://sketch.com -->
    <title>Mobile, Web and Software Agencies</title>
    <desc>Created with Sketch.</desc>
    <g id="Design-Sprint" stroke="none" stroke-width="1" fill="none" fill-rule="evenodd">
        <g id="T2---LG---HP11" transform="translate(-123.000000, -2193.000000)" fill-rule="nonzero">
            <g id="04---Content" transform="translate(123.000000, 1129.000000)">
                <g id="Enterprise">
                    <g id="C2---Engage-on-your-terms" transform="translate(0.000000, 992.000000)">
                        <g id="Mobile,-Web-and-Software-Agencies" transform="translate(0.000000, 72.000000)">
                            <g id="Group">
                                <g transform="translate(21.000000, 0.250000)">
                                    <g transform="translate(0.000000, 12.000000)">
                                        <path d="M86.3715,40.38225 C74.28075,39.30375 67.76325,29.619 67.76325,29.619 L79.2195,18.68625 C79.2195,18.68625 80.3445,17.808 79.464,16.4355 C79.464,16.4355 76.953,14.727 77.337,12.43575 C77.87475,9.22725 80.028,9.2595 80.69625,9.22425 C81.2805,9.19425 81.981,8.35725 82.37025,7.98975 C82.91925,7.4745 83.42625,6.792 84.06075,6.36825 C84.159,6.3015 84.26175,6.2415 84.36525,6.18975 C86.451,5.1645 88.326,3.906 90.285,2.667 C92.00325,1.578 93.852,0.7005 95.93625,0.82875 C99.88425,1.07025 103.098,-1.99725 104.592,6.34425 C105.0765,9.057 105.81525,11.44425 105.81525,11.44425 C105.81525,11.44425 106.93575,14.9175 107.4135,17.1225 C107.89125,19.32975 104.985,18.9435 104.985,18.9435 C102.852,18.942 102.9375,21.96975 102.414,23.69925 C101.89275,25.428 102.55725,28.63425 95.01525,28.11675 L86.3715,40.38225 Z" id="Path" fill="#D1D1D1"></path>
                                        <path d="M77.619,36.81825 C72.228,34.497 69.816,30.46725 68.6745,28.749 C56.34375,28.446 12.4635,29.97675 0.735,71.79825 L11.8845,71.79825 C4.209,89.649 2.082,116.3205 2.082,116.3205 L83.076,116.3205 L87.705,71.5695 L109.72875,71.59125 C109.72875,71.59125 108.28125,50.445 86.8815,39.861 C86.8815,39.8625 84.83625,39.924 77.619,36.81825 Z" id="Path" fill="#336278"></path>
                                        <path d="M97.83825,102.64125 L119.814,102.64125 L119.814,88.52625 L108.66825,88.52625 C107.61975,88.52625 106.77,87.6765 106.77,86.628 L106.77,71.6025 L87.705,71.57025 L85.2615,88.06125 C84.123,95.7435 90.075,102.64125 97.83825,102.64125" id="Path" fill="#B2B2B2"></path>
                                        <path d="M72.4875,100.476 C58.56975,101.26275 42.867,104.6145 20.562,104.5275 C-1.74375,104.44425 4.11,71.87025 4.11,71.87025 L25.82775,71.87025 L25.872,83.025 C25.8765,84.31125 26.8695,85.37775 28.15125,85.476 L71.6175,89.01075 C71.6175,89.01075 82.53675,86.9745 90.47325,92.07225 C90.47325,92.07225 97.90725,97.716 97.8387274,102.5415 C97.77225,107.3655 97.8387274,102.5415 97.8387274,102.5415 L83.71125,102.5415 L72.4875,100.476 Z" id="Path" fill="#D1D1D1"></path>
                                        <polygon id="Path" fill="#6FDA44" points="107.46675 107.238 172.059 107.238 195.255 56.487 130.66275 56.487"></polygon>
                                        <rect id="Rectangle" fill="#6FDA44" x="72.4875" y="99.82275" width="89.66175" height="7.35825"></rect>
                                        <path d="M86.739,36.84375 L92.00625,32.3865 L75.606,55.7745 C75.606,55.7745 58.24725,39.98775 68.6745,28.7505" id="Path" fill="#D1D1D1"></path>
                                    </g>
                                    <path d="M101.71275,0.46725 C98.79075,0.46725 93.492,4.91175 89.3715,4.2 C86.71275,3.741 84.57,2.721 81.861,3.3195 C76.8735,4.425 77.03025,9.22425 77.1135,10.5225 C77.20425,11.83125 76.72125,13.18275 75.15975,14.3625 C73.1895,15.84975 70.91325,23.91975 79.0155,26.93025 L80.5065,27.7515 L80.5065,27.7515 C81.384,27.63225 82.1475,24.97275 84.1785,21.54825 C88.50975,14.241 95.65725,19.55625 101.57775,18.8145 C101.63625,18.8145 101.6805,18.82725 101.7345,18.82725 C102.84375,18.82725 103.89825,18.61125 104.871,18.23175 C108.09075,16.9755 110.3715,13.85025 110.3715,10.18425 C110.3715,5.41125 107.72325,0.46725 101.71275,0.46725 Z" id="Path" fill="#2B5468"></path>
                                    <path d="M84.882,24.879 C84.882,27.024 83.1435,28.76325 80.9985,28.76325 C78.85125,28.76325 77.1135,27.02475 77.1135,24.879 C77.1135,22.73325 78.8505,20.9955 80.9985,20.9955 C83.14275,20.99625 84.882,22.73325 84.882,24.879 Z" id="Path" fill="#D1D1D1"></path>
                                </g>
                                <g transform="translate(217.000000, 7.000000)" id="Path">
                                    <path d="M50.04525,47.94825 C46.16925,47.32275 43.7685,44.68425 43.7685,44.68425 C41.36025,42.408 41.93625,38.57025 41.35725,32.118 C41.35725,32.118 41.79525,28.59975 44.1405,26.25525 C46.48425,23.90925 44.72775,17.41575 38.2755,19.17525 C31.827,20.93475 29.0295,15.60375 27.204,12.084 C25.377,8.56425 19.87425,8.1195 17.85075,16.37175 C17.1945,19.044 15.9345,21.2715 15.9345,21.2715 C15.9345,21.2715 13.77375,24.43725 13.566,26.6925 C13.35675,28.947 15.72825,28.8345 15.72825,28.8345 C17.52525,28.77525 17.34825,32.1225 17.6265,33.91125 C17.90925,35.6985 16.8075,38.7915 24.372,39.3135 L30.2985,62.60775 L53.57175,62.60775 C57.77025,59.86575 61.39575,56.319 64.215,52.17375 C63.6375,51.93525 63.04725,51.7155 62.44125,51.5235 C62.442,51.52275 55.10025,48.76575 50.04525,47.94825 Z" fill="#B2B2B2"></path>
                                    <path d="M0.31875,121.368 L94.46925,121.368 L94.46925,91.6185 C94.46925,85.40175 93.1185,79.488 90.71325,74.13525 C84.054,59.32275 69.27975,48.65025 52.07625,48.31875 C50.75775,49.848 46.6065,54.4035 41.7255,55.3425 C31.788,57.25875 27.49275,51.67725 27.49275,51.67725 C20.907,54.3465 15.831,58.24425 11.94225,62.4015 C10.24575,64.215 8.7855,66.075 7.51575,67.9065 C6.01725,70.06875 4.788,72.18975 3.8085,74.13525 L4.07475,74.13525 C1.6695,79.488 0.31875,85.401 0.31875,91.6185 L0.31875,121.368 L0.31875,121.368 Z" fill="#6FDA44"></path>
                                    <path d="M30.8655,0.72075 C30.8655,0.72075 15.243,0.72075 15.243,13.97775 C15.243,13.97775 14.84475,22.158 20.83125,25.7355 C26.82075,29.313 24.02325,33.9585 21.38625,38.7855 C18.8595,43.4085 24.12525,43.74825 34.1565,43.74825 L53.62425,43.74825 C59.1075,43.74825 66.2925,36.15225 57.342,29.31225 C57.342,29.31225 51.55425,25.47225 51.55425,17.73375 C51.555,6.5745 42.006,0.078 30.8655,0.72075" fill="#2B5468"></path>
                                </g>
                                <path d="M304.36,75.0385 C304.36,75.0385 312.103,86.45575 313.5325,100.5325 C314.92975,114.298 311.57875,118.9105 300.86425,120.466 C291.87325,121.771 285.66925,122.3965 285.66925,122.3965 L237.30625,116.79325 C237.30625,116.79325 239.209,109.22125 249.37375,109.98925 C259.5385,110.755 267.5305,114.349 267.5305,114.349 L292.978,102.9085 L286.87225,91.0945 L304.36,75.0385 Z" id="Path" fill="#B2B2B2"></path>
                                <path d="M284.4595,121.96825 C284.4535,122.38075 284.11075,122.71825 283.69825,122.71825 L211.13575,122.71825 C210.72325,122.71825 210.3805,122.38075 210.3745,121.96825 L209.75042,79.78075 C209.7445,79.36825 210.0775,79.03075 210.48925,79.03075 L284.3455,79.03075 C284.758,79.03075 285.09025,79.36825 285.08433,79.78075 L284.4595,121.96825 Z" id="Path" fill="#F9F9F9"></path>
                                <rect id="Rectangle" fill="#2B5468" x="0.59475" y="119.431" width="328" height="9.90075"></rect>
                            </g>
                        </g>
                    </g>
                </g>
            </g>
        </g>
    </g>
</svg>