<?xml version="1.0" encoding="UTF-8"?>
<svg width="328px" height="182px" viewBox="0 0 328 182" version="1.1" xmlns="http://www.w3.org/2000/svg" xmlns:xlink="http://www.w3.org/1999/xlink">
    <!-- Generator: Sketch 60 (88103) - https://sketch.com -->
    <title>airplanes</title>
    <desc>Created with Sketch.</desc>
    <g id="Design-Sprint" stroke="none" stroke-width="1" fill="none" fill-rule="evenodd">
        <g id="T2---LG---HP11" transform="translate(-149.000000, -1495.000000)" fill-rule="nonzero">
            <g id="04---Content" transform="translate(123.000000, 1129.000000)">
                <g id="Enterprise">
                    <g id="03---Content" transform="translate(5.000000, 0.000000)">
                        <g id="C2---Engage-on-your-terms" transform="translate(21.000000, 313.000000)">
                            <g id="airplanes" transform="translate(0.000000, 53.000000)">
                                <path d="M315.891543,80.1733931 C314.7515,64.4125561 302.427035,52 287.402468,52 C275.030001,52 264.529605,60.3707025 260.509453,72.0896861 C258.475568,71.4068288 256.343441,71.0594591 254.197215,71.0612855 C244.836862,71.0612855 236.904562,77.5426009 234.084456,86.5231689 C233.586207,86.4241322 233.080312,86.3681198 232.572399,86.3557549 C226.710358,86.5106405 222.030338,91.2747368 222,97.1180867 C222,102.343797 225.19212,107.043348 229.644288,108 L315.00351,108 C322.203781,108 328,101.901345 328,94.2481315 C328,86.8938714 322.623797,80.6636771 315.843541,80.1973094" id="Path" fill="#F2F2F2"></path>
                                <polygon id="Path" fill="#6FDA44" points="217 1 104.054171 36 76 16.2060811"></polygon>
                                <polygon id="Path" fill="#6FDA44" points="218 1 161.107298 76 142.039391 62.4695625 119 46.1450539"></polygon>
                                <polygon id="Path" fill="#34BA08" points="217 0 104 35.2538336 104 35.2776537 119.235686 80 141.060747 61.5751079 118.027834 45.2225696"></polygon>
                                <polygon id="Path" fill="#33637A" points="162 103 70.831793 147 45 133.717208"></polygon>
                                <polygon id="Path" fill="#33637A" points="161 103 122.109917 173 104.839883 164.049141 84 153.241456"></polygon>
                                <polygon id="Path" fill="#1D4354" points="162 103 71.011991 146.53667 71 146.548542 88.7467387 182 105.030571 163.894349 83.8903676 153.114067"></polygon>
                                <polygon id="Path" fill="#E0E0E0" points="86 53 16.1962865 69 0 55.7810651"></polygon>
                                <polygon id="Path" fill="#E0E0E0" points="85 53 47.979965 96 37.1231278 86.8962343 24 75.9093445"></polygon>
                                <polygon id="Path" fill="#B2B2B2" points="85 53 16.0118659 69.1872109 16 69.1872109 23.333104 97 37.1212382 86.835102 23.9975924 75.8680272"></polygon>
                            </g>
                        </g>
                    </g>
                </g>
            </g>
        </g>
    </g>
</svg>