<?xml version="1.0" encoding="UTF-8"?>
<svg width="216px" height="232px" viewBox="0 0 216 232" version="1.1" xmlns="http://www.w3.org/2000/svg" xmlns:xlink="http://www.w3.org/1999/xlink">
    <!-- Generator: Sketch 60 (88103) - https://sketch.com -->
    <title>Group 5</title>
    <desc>Created with Sketch.</desc>
    <g id="Design-Sprint" stroke="none" stroke-width="1" fill="none" fill-rule="evenodd">
        <g id="T1---MD-U2U-Homepage" transform="translate(-607.000000, -1572.000000)">
            <g id="C3---Hire-with-confident" transform="translate(135.000000, 1571.000000)">
                <g id="Group-5" transform="translate(472.000000, 1.000000)">
                    <g id="specialized-profile" fill-rule="nonzero">
                        <path d="M80.92,147.362165 L1.428,147.362165 C0.67689274,147.362165 0.068,146.753809 0.068,146.003363 L0.068,14.6207183 C0.068,13.8702722 0.67689274,13.2619155 1.428,13.2619155 L101.8504,13.2619155 C102.601507,13.2619155 103.2104,13.8702722 103.2104,14.6207183 L103.2104,146.003363 C103.2104,146.753809 102.601507,147.362165 101.8504,147.362165 L80.92,147.362165 Z" id="Path" fill="#E0E0E0"></path>
                        <polygon id="Path" fill="#FFFFFF" points="75.1672 139.861574 7.8608 139.861574 7.8608 22.5153627 95.4312 22.5153627 95.4312 119.629"></polygon>
                        <path d="M75.7384,45.3160739 L27.5536,45.3160739 C26.8024927,45.3160739 26.1936,44.7077172 26.1936,43.9572711 C26.1936,43.2068251 26.8024927,42.5984683 27.5536,42.5984683 L75.7384,42.5984683 C76.4895073,42.5984683 77.0984,43.2068251 77.0984,43.9572711 C77.0984,44.7077172 76.4895073,45.3160739 75.7384,45.3160739 Z" id="Path" fill="#C4C4C4"></path>
                        <rect id="Rectangle" fill="#FFFFFF" x="20.06" y="99.1246655" width="15.096" height="15.0827113"></rect>
                        <rect id="Rectangle" fill="#6FDA44" x="20.0872" y="59.5155634" width="18.5776" height="18.5612465"></rect>
                        <path d="M27.2,73.6607007 L27.2,73.6607007 C26.8365456,73.6591932 26.4888172,73.512395 26.2344,73.2530599 L23.5144,70.5354542 C22.9870959,70.0054702 22.9870959,69.1495262 23.5144,68.6195423 C23.7697626,68.3623037 24.117373,68.2176107 24.48,68.2176107 C24.842627,68.2176107 25.1902374,68.3623037 25.4456,68.6195423 L27.2,70.3723979 L33.252,64.3257254 C33.5073626,64.0684868 33.854973,63.9237938 34.2176,63.9237938 C34.580227,63.9237938 34.9278374,64.0684868 35.1832,64.3257254 C35.7105041,64.8557093 35.7105041,65.7116533 35.1832,66.2416373 L28.1656,73.2530599 C27.9111828,73.512395 27.5634544,73.6591932 27.2,73.6607007 L27.2,73.6607007 Z" id="Path" fill="#FFFFFF"></path>
                        <rect id="Rectangle" fill="#6FDA44" x="20.0872" y="92.602412" width="18.5776" height="18.5612465"></rect>
                        <path d="M27.2,106.747572 L27.2,106.747572 C26.8399169,106.742544 26.495022,106.601796 26.2344,106.353496 L23.5144,103.635891 C22.9870959,103.105907 22.9870959,102.249963 23.5144,101.719979 C23.7697626,101.46274 24.117373,101.318047 24.48,101.318047 C24.842627,101.318047 25.1902374,101.46274 25.4456,101.719979 L27.2,103.459246 L33.252,97.4125739 C33.7852862,96.8797572 34.6499138,96.8797572 35.1832,97.4125739 C35.7164862,97.9453907 35.7164862,98.8092572 35.1832,99.3420739 L28.1656,106.353496 C27.9089424,106.607846 27.5614921,106.749637 27.2,106.747572 Z" id="Path" fill="#FFFFFF"></path>
                        <polygon id="Path" fill="#D1D1D1" points="95.4312 119.642588 75.1944 119.642588 75.1944 139.861574"></polygon>
                        <path d="M215.288,32.6112676 C215.304425,33.905787 214.533645,35.0809971 213.339137,35.5827047 C212.144628,36.0844123 210.764937,35.8124254 209.850683,34.8950049 C208.936429,33.9775843 208.670191,32.5979405 209.177518,31.4066715 C209.684845,30.2154025 210.864424,29.4504068 212.16,29.4724331 C213.883586,29.4945453 215.273346,30.8891188 215.288,32.6112676" id="Path" fill="#FFCC0D"></path>
                        <path d="M198.2064,7.25600704 L192.7664,7.25600704 L192.7664,1.82079577 C192.814645,1.37573255 192.604166,0.942246113 192.22444,0.704618877 C191.844714,0.466991641 191.362486,0.466991641 190.98276,0.704618877 C190.603034,0.942246113 190.392555,1.37573255 190.4408,1.82079577 L190.4408,7.25600704 L185.0008,7.25600704 C184.540523,7.1460547 184.059655,7.32750835 183.787045,7.71401274 C183.514434,8.10051713 183.505146,8.61400185 183.763601,9.01009535 C184.022056,9.40618886 184.496047,9.60488383 184.96,9.51161972 L190.4,9.51161972 L190.4,14.946831 C190.464305,15.5400439 190.965592,15.9895745 191.5628,15.9895745 C192.160008,15.9895745 192.661295,15.5400439 192.7256,14.946831 L192.7256,9.51161972 L198.1656,9.51161972 C198.804041,9.51161972 199.3216,8.99451649 199.3216,8.35663732 C199.3216,7.71875816 198.804041,7.20165493 198.1656,7.20165493 L198.2064,7.25600704 Z" id="Path" fill="#F3756C"></path>
                        <path d="M141.44,175.897025 L57.8,175.897025 C57.0488927,175.897025 56.44,175.288668 56.44,174.538222 L56.44,36.2392711 C56.44,35.4888251 57.0488927,34.8804683 57.8,34.8804683 L163.54,34.8804683 C164.291107,34.8804683 164.9,35.4888251 164.9,36.2392711 L164.9,174.538222 C164.9,175.288668 164.291107,175.897025 163.54,175.897025 L141.44,175.897025 Z" id="Path" fill="#1D4354"></path>
                        <path d="M141.44,175.897025 L57.8,175.897025 C57.0488927,175.897025 56.44,175.288668 56.44,174.538222 L56.44,36.2392711 C56.44,35.4888251 57.0488927,34.8804683 57.8,34.8804683 L163.54,34.8804683 C164.291107,34.8804683 164.9,35.4888251 164.9,36.2392711 L164.9,174.538222 C164.9,175.288668 164.291107,175.897025 163.54,175.897025 L141.44,175.897025 Z" id="Path" fill="#1D4354"></path>
                        <path d="M141.44,175.897025 L57.8,175.897025 C57.0488927,175.897025 56.44,175.288668 56.44,174.538222 L56.44,36.2392711 C56.44,35.4888251 57.0488927,34.8804683 57.8,34.8804683 L163.54,34.8804683 C164.291107,34.8804683 164.9,35.4888251 164.9,36.2392711 L164.9,174.538222 C164.9,175.288668 164.291107,175.897025 163.54,175.897025 L141.44,175.897025 Z" id="Path" fill="#1D4354"></path>
                        <path d="M144.9488,92.3170634 L76.16,92.3170634 C75.4088927,92.3170634 74.8,91.7087066 74.8,90.9582606 C74.8,90.2078145 75.4088927,89.5994577 76.16,89.5994577 L145.0032,89.5994577 C145.754307,89.5994577 146.3632,90.2078145 146.3632,90.9582606 C146.3632,91.7087066 145.754307,92.3170634 145.0032,92.3170634 L144.9488,92.3170634 Z" id="Path" fill="#33637A"></path>
                        <path d="M144.9488,104.736521 L76.16,104.736521 C75.4088927,104.736521 74.8,104.128164 74.8,103.377718 C74.8,102.627272 75.4088927,102.018915 76.16,102.018915 L145.0032,102.018915 C145.754307,102.018915 146.3632,102.627272 146.3632,103.377718 C146.3632,104.128164 145.754307,104.736521 145.0032,104.736521 L144.9488,104.736521 Z" id="Path" fill="#33637A"></path>
                        <path d="M129.5944,117.155979 L76.16,117.155979 C75.4088927,117.155979 74.8,116.547622 74.8,115.797176 C74.8,115.04673 75.4088927,114.438373 76.16,114.438373 L129.5944,114.438373 C130.345507,114.438373 130.9544,115.04673 130.9544,115.797176 C130.9544,116.547622 130.345507,117.155979 129.5944,117.155979 Z" id="Path" fill="#33637A"></path>
                        <path d="M127.908,129.589025 L76.16,129.589025 C75.4088927,129.589025 74.8,128.980668 74.8,128.230222 C74.8,127.479776 75.4088927,126.871419 76.16,126.871419 L127.908,126.871419 C128.659107,126.871419 129.268,127.479776 129.268,128.230222 C129.268,128.980668 128.659107,129.589025 127.908,129.589025 Z" id="Path" fill="#33637A"></path>
                        <path d="M86.2376,58.0480563 C87.4238537,59.0114758 88.2288179,60.3647442 88.5088,61.8662923 L84.9048,61.8662923 C84.668278,61.2387698 84.2400376,60.7015636 83.6808,60.3308451 C83.1022348,59.9578479 82.4242953,59.7683814 81.736,59.7873239 C80.8051076,59.756044 79.9136148,60.1636562 79.3288,60.8879542 C78.0944731,62.6353638 78.0944731,64.9698087 79.3288,66.7172183 C79.9204088,67.4296474 80.8101648,67.8264206 81.736,67.7906725 C82.4266177,67.8126665 83.1067654,67.6178308 83.6808,67.2335634 C84.2356138,66.8699429 84.663398,66.3428067 84.9048,65.7252923 L88.5088,65.7252923 C88.2224757,67.2206616 87.4184148,68.5676009 86.2376,69.5299401 C84.9703066,70.5152328 83.3949083,71.0206494 81.7904,70.9566831 C80.5294569,70.9784369 79.2854737,70.6641972 78.1864,70.0462852 C77.1608863,69.4525841 76.329503,68.5747365 75.7928,67.518912 C74.6680538,65.1687885 74.6680538,62.436384 75.7928,60.0862606 C76.329503,59.030436 77.1608863,58.1525885 78.1864,57.5588873 C80.7473457,56.1826098 83.8681001,56.3774852 86.2376,58.0616444 L86.2376,58.0480563 Z" id="Path" fill="#FFFFFF"></path>
                        <polygon id="Path" fill="#FFFFFF" points="93.84 56.7707817 97.2808 67.3422676 100.7216 56.7707817 104.3528 56.7707817 99.4568 70.8208028 95.064 70.8208028 90.1952 56.7707817"></polygon>
                        <ellipse id="Oval" fill="#6FDA44" cx="159.7048" cy="56.5669613" rx="37.7264" ry="37.6931901"></ellipse>
                        <path d="M177.4392,52.2323803 C177.127874,50.369683 176.914514,48.4919576 176.8,46.6069366 L176.8,46.6069366 C176.575038,39.7185654 170.920909,34.2507358 164.0228,34.2507358 C157.124691,34.2507358 151.470562,39.7185654 151.2456,46.6069366 C150.909356,46.6995158 150.560168,46.7362401 150.212,46.7156408 C149.793303,46.7172911 149.378452,46.7955828 148.988,46.9466373 C147.468444,47.5109538 146.456196,48.9549776 146.4448,50.5746408 C146.446239,51.1502523 146.581241,51.7176914 146.8392,52.2323803 C147.141018,52.7197793 147.491908,53.1750796 147.8864,53.5911831 C148.129681,53.8413842 148.348289,54.1144041 148.5392,54.4064648 C148.852,55.004338 148.3624,56.2000845 147.9952,56.7164296 L135.0752,75.739669 C140.629882,81.7186045 147.856355,85.8896986 155.8152,87.7107218 L163.7576,68.9048908 C171.7952,70.42675 171.4824,66.9074507 172.2712,65.113831 C173.06,63.3202113 173.3456,60.0590845 175.644,60.3308451 C175.644,60.3308451 178.7176,61.1325387 178.4864,58.6866937 C178.2552,56.2408486 177.4392,52.2323803 177.4392,52.2323803 Z" id="Path" fill="#F9F9F9"></path>
                        <path d="M153.1088,50.7920493 L153.1088,50.167 C153.1088,48.3058937 151.598746,46.797169 149.736,46.797169 C148.689891,46.8034635 147.709631,47.3083071 147.0976,48.1559718 C146.964731,48.2885739 146.858547,48.4454037 146.7848,48.6179648 L146.7848,48.713081 L150.28,31.4562852 C150.558871,30.0633752 151.842125,29.1032451 153.2584,29.2278486 L174.08,31.0622324 C174.829507,31.1273505 175.521305,31.4909143 175.99966,32.0710795 C176.478014,32.6512448 176.702723,33.3992529 176.6232,34.1467148 L175.8208,41.8239507 L165.6072,40.7640845 C164.440442,40.6443909 163.308529,41.2045649 162.6968,42.2044155 L158.1544,49.5963028 C157.528197,50.6150225 156.363089,51.1731445 155.176,51.0230458 L153.1088,50.7920493 Z" id="Path" fill="#1D4354"></path>
                        <path d="M148.4032,40.3156796 L146.7032,48.726669 L146.7032,48.6315528 C146.776947,48.4589918 146.883131,48.3021619 147.016,48.1695599 C147.628031,47.3218951 148.608291,46.8170515 149.6544,46.810757 C151.517146,46.810757 153.0272,48.3194818 153.0272,50.180588 L153.0272,50.8056373 L157.1072,51.2948063 L162.6832,42.2315915 L148.4032,40.3156796 Z" id="Path" fill="#33637A"></path>
                        <path d="M175.44,90.8631444 C164.0704,80.3188345 154.088,71.3915 150.7016,69.3125317 C137.5368,61.1597148 128.6832,69.8696408 125.9224,73.2394718 C134.942497,91.5251734 156.86821,99.3467433 175.44,90.9039085 L175.44,90.8631444 Z" id="Path" fill="#B2B2B2"></path>
                    </g>
                    <text id="H2" font-family="GothamSSm-Bold, Gotham SSm" font-size="23.8" font-weight="bold" line-spacing="42.5" fill="#1D4354">
                        <tspan x="85.1394" y="202.192121">1M+</tspan>
                    </text>
                    <text id="Client-Reviews" font-family="GothamSSm-Medium, Gotham SSm" font-size="13.6" font-weight="400" line-spacing="11.9" fill="#1B4355">
                        <tspan x="53.5398" y="228.781354">Client Reviews </tspan>
                    </text>
                </g>
            </g>
        </g>
    </g>
</svg>