<?xml version="1.0" encoding="UTF-8"?>
<svg width="264px" height="194px" viewBox="0 0 264 194" version="1.1" xmlns="http://www.w3.org/2000/svg" xmlns:xlink="http://www.w3.org/1999/xlink">
    <!-- Generator: Sketch 60 (88103) - https://sketch.com -->
    <title>Group 2</title>
    <desc>Created with Sketch.</desc>
    <g id="Design-Sprint" stroke="none" stroke-width="1" fill="none" fill-rule="evenodd">
        <g id="T1---MD-U2U-Homepage" transform="translate(-592.000000, -993.000000)">
            <g id="C1---Proven-Talent" transform="translate(145.000000, 984.000000)">
                <g id="Group-2" transform="translate(447.000000, 9.000000)">
                    <g id="Group-3" transform="translate(81.557500, 142.801684)">
                        <text id="H2" font-family="GothamSSm-Bold, Gotham SSm" font-size="19.38" font-weight="bold" line-spacing="40.375" fill="#1D4354">
                            <tspan x="24.91622" y="19">4.8/5</tspan>
                        </text>
                        <text id="Average-Rating" font-family="GothamSSm-Medium, Gotham SSm" font-size="12.92" font-weight="400" line-spacing="11.305" fill="#1B4355">
                            <tspan x="0" y="49.1123019">Average Rating</tspan>
                        </text>
                    </g>
                    <g id="freelancers-two" fill-rule="nonzero">
                        <path d="M61.68654,151.364944 L118.000581,110.370574 C118.825442,109.776979 118.999862,108.622464 118.403927,107.800144 L59.6480063,27.225504 C59.0466206,26.3995536 57.892905,26.2162108 57.0698606,26.817067 L0.75582,67.8078062 C-0.0654075,68.4032166 -0.245278125,69.5595472 0.354290625,70.381867 L59.1102113,150.960137 C59.70978,151.780642 60.8634956,151.963985 61.68654,151.364944" id="Path" fill="#F2F2F2"></path>
                        <path d="M201.760335,151.364944 L145.448111,110.370574 C144.62325,109.776979 144.447013,108.622464 145.044765,107.800144 L203.800686,27.225504 C204.402071,26.3995536 205.55397,26.2162108 206.375197,26.817067 L262.691055,67.8078062 C263.515916,68.4032166 263.692153,69.5595472 263.090767,70.381867 L204.336664,150.960137 C203.737095,151.780642 202.583379,151.963985 201.760335,151.364944" id="Path" fill="#F2F2F2"></path>
                        <path d="M203.960571,138.098909 L133.549397,116.134074 C132.521046,115.814586 131.955998,114.719975 132.272134,113.692528 L163.749493,12.9501764 C164.074714,11.9190998 165.170289,11.3436575 166.198641,11.6667765 L236.607998,33.6279812 C237.639983,33.9456544 238.210481,35.0420809 237.887078,36.0749728 L206.404268,136.817325 C206.084497,137.848401 204.987105,138.420213 203.960571,138.098909" id="Path" fill="#E0E0E0"></path>
                        <polygon id="Rectangle" fill="#B2B2B2" transform="translate(178.539679, 100.963000) rotate(17.344112) translate(-178.539679, -100.963000) " points="157.567783 94.6208554 199.514757 94.6103473 199.511575 107.305144 157.5646 107.315652"></polygon>
                        <path d="M170.657252,78.5723907 C170.399256,79.3874495 169.534423,79.8430837 168.718646,79.5907604 C167.904686,79.3329912 167.448651,78.4707353 167.697563,77.6538613 C167.955559,76.8406178 168.822208,76.3904294 169.636168,76.6391222 C170.453762,76.8932608 170.906164,77.7609625 170.657252,78.5723907" id="Path" fill="#B2B2B2"></path>
                        <path d="M178.171847,80.9213574 C177.917484,81.7346009 177.050835,82.1866045 176.236875,81.9342812 C175.426549,81.6801426 174.966879,80.8106256 175.224876,80.0028279 C175.475604,79.1877692 176.342254,78.7357655 177.159848,78.9862736 C177.975624,79.2404122 178.429843,80.1062986 178.171847,80.9213574" id="Path" fill="#B2B2B2"></path>
                        <path d="M185.69916,83.2685088 C185.43753,84.0817523 184.576331,84.5319406 183.760554,84.2814326 C182.944777,84.0254787 182.496009,83.1614075 182.746738,82.3445335 C183.001101,81.5349206 183.862299,81.0829169 184.679893,81.3316097 C185.493853,81.5875636 185.949889,82.45345 185.69916,83.2685088" id="Path" fill="#B2B2B2"></path>
                        <path d="M193.222839,85.6120296 C192.96666,86.4252731 192.100011,86.8827226 191.286051,86.6267687 C190.470274,86.3762607 190.019689,85.5067437 190.270418,84.6935002 C190.52478,83.882072 191.389613,83.4300683 192.209023,83.6787611 C193.021166,83.934715 193.473568,84.8006014 193.222839,85.6120296" id="Path" fill="#B2B2B2"></path>
                        <path d="M200.742885,87.9628116 C200.484889,88.7724245 199.62369,89.2262434 198.807913,88.9721049 C197.988503,88.7179663 197.537918,87.8538951 197.79228,87.0406516 C198.044826,86.2274081 198.911475,85.7772197 199.723618,86.0259125 C200.550296,86.2782358 200.997248,87.1459376 200.742885,87.9628116" id="Path" fill="#B2B2B2"></path>
                        <path d="M208.121214,62.1278087 C205.019809,70.7848582 195.477581,75.2831113 186.812904,72.1844358 C178.153678,69.0821297 173.649645,59.548302 176.752868,50.8930678 C179.857907,42.2432794 189.398318,37.7395805 198.057544,40.8400713 C206.718587,43.9441926 211.226254,53.4743898 208.121214,62.1278087" id="Path" fill="#D1D1D1"></path>
                        <path d="M198.395482,56.9288593 C197.379849,59.7625046 194.258458,61.2365084 191.420499,60.219954 C188.584357,59.2033997 187.110872,56.0811256 188.126505,53.2511108 C189.142138,50.4156503 192.263529,48.9398312 195.101488,49.9582008 C197.939447,50.9729399 199.411116,54.095214 198.395482,56.9288593" id="Path" fill="#B2B2B2"></path>
                        <path d="M195.804619,62.3311196 C194.418343,62.821244 192.890351,62.9138231 191.385979,62.5326152 C191.142517,62.4799722 190.899056,62.4146223 190.662863,62.3311196 C190.421218,62.2421711 190.192292,62.1387004 189.970633,62.024338 C188.569823,61.3635777 187.450628,60.3197942 186.692991,59.0654387 C183.101029,59.3722203 179.790683,61.3399791 177.823007,64.4658837 C179.707106,67.9294297 182.808512,70.7485527 186.812904,72.1844358 C191.044406,73.6983756 195.481215,73.3861482 199.276667,71.6779739 C199.585536,68.1726766 198.277386,64.7472515 195.804619,62.3311196" id="Path" fill="#B2B2B2"></path>
                        <path d="M59.956875,137.973655 L130.400753,116.128628 C131.429104,115.814586 132.001419,114.719975 131.683466,113.688898 L100.376893,12.8939029 C100.057123,11.8628263 98.9633644,11.2837534 97.9331963,11.6068724 L27.4893188,33.4464536 C26.4573338,33.7641269 25.8850181,34.8587381 26.2029713,35.8916299 L57.514995,136.68844 C57.8329481,137.717702 58.9285237,138.296774 59.956875,137.973655" id="Path" fill="#E0E0E0"></path>
                        <polygon id="Rectangle" fill="#B2B2B2" transform="translate(85.429445, 100.894328) rotate(162.751936) translate(-85.429445, -100.894328) " points="64.4534125 94.5416958 106.40231 94.5521534 106.405477 107.246961 64.4565795 107.236503"></polygon>
                        <path d="M93.3601219,78.5052255 C93.619935,79.3202843 94.4829506,79.7741032 95.2969106,79.5254104 C96.1108706,79.2712718 96.57054,78.4090159 96.3198112,77.5885113 C96.0636319,76.7770831 95.1969825,76.3250795 94.3830225,76.5737722 C93.5654287,76.8297261 93.11121,77.691982 93.3601219,78.5052255" id="Path" fill="#B2B2B2"></path>
                        <path d="M85.8364425,80.8414853 C86.0944387,81.6529135 86.9574544,82.1103629 87.7714144,81.8562244 C88.5835575,81.6020858 89.0450437,80.7380146 88.7888644,79.9265864 C88.5399525,79.1115276 87.6696694,78.6577087 86.8557094,78.9045862 C86.0399325,79.1587248 85.58208,80.0264265 85.8364425,80.8414853" id="Path" fill="#B2B2B2"></path>
                        <path d="M78.3109463,83.1741145 C78.5707594,83.9891732 79.4319581,84.4411769 80.247735,84.1924841 C81.0635119,83.9383455 81.5159138,83.072459 81.265185,82.255585 C81.0126394,81.4459721 80.1496238,80.9921531 79.33203,81.2408459 C78.5217038,81.4986151 78.0584006,82.360871 78.3109463,83.1741145" id="Path" fill="#B2B2B2"></path>
                        <path d="M70.7818162,85.5067437 C71.0398125,86.3218024 71.9028281,86.7792519 72.7167881,86.5269286 C73.532565,86.2764205 73.9886006,85.4069035 73.736055,84.5954753 C73.4853262,83.7822318 72.6150431,83.3284129 71.8010831,83.5734751 C70.9853063,83.829429 70.5329044,84.6916849 70.7818162,85.5067437" id="Path" fill="#B2B2B2"></path>
                        <path d="M63.2599537,87.8430034 C63.5143162,88.6544316 64.375515,89.1100658 65.1876581,88.8595578 C66.0125194,88.6054192 66.4649212,87.7431632 66.2105587,86.9281045 C65.95983,86.114861 65.0895469,85.6610421 64.2792206,85.9097349 C63.4561762,86.1620582 63.0055912,87.0243141 63.2599537,87.8430034" id="Path" fill="#B2B2B2"></path>
                        <path d="M87.398955,51.1744355 C90.34956,59.8804975 85.6765575,69.3326377 76.9610081,72.2806454 C68.2454587,75.2250224 58.7849906,70.5561335 55.8362025,61.8482563 C52.8855975,53.140379 57.5622337,43.6900541 66.2777831,40.7420464 C74.9915156,37.7976693 84.4501669,42.4683736 87.398955,51.1744355" id="Path" fill="#D1D1D1"></path>
                        <path d="M76.5485775,53.1385638 C77.5078875,55.9885465 75.9817125,59.0817762 73.1310356,60.0475028 C70.2785419,61.0132295 67.1789531,59.4847674 66.2141925,56.6329694 C65.247615,53.7793561 66.7774237,50.6861264 69.6317344,49.7203997 C72.486045,48.7564884 75.5801831,50.288581 76.5485775,53.1385638" id="Path" fill="#B2B2B2"></path>
                        <path d="M77.8730794,58.9801208 C77.0918231,60.2217693 75.9508256,61.2455848 74.5372969,61.8827465 C74.3138213,61.991663 74.084895,62.0878727 73.8414337,62.1713753 C73.5979725,62.2530627 73.3526944,62.3129668 73.11105,62.3619793 C71.6030437,62.7123275 70.0768687,62.5888887 68.7051281,62.0787963 C66.0815606,64.5493864 64.7116369,68.1472627 65.1113494,71.8177501 C68.7432825,73.3589191 72.9275456,73.6421021 76.9591913,72.2806454 C81.2161294,70.8411318 84.4955887,67.8441117 86.4087581,64.1463952 C84.4701525,61.2110945 81.3160575,59.3377301 77.8730794,58.9801208" id="Path" fill="#B2B2B2"></path>
                        <path d="M176.582081,139.725396 L87.1736625,139.725396 C86.2561406,139.725396 85.5184894,138.984764 85.5184894,138.07168 L85.5184894,2.41976243 C85.5184894,1.50667878 86.2561406,0.766046319 87.1736625,0.766046319 L176.582081,0.766046319 C177.495969,0.766046319 178.237258,1.50667878 178.237258,2.41976243 L178.237258,138.07168 C178.239071,138.982949 177.495969,139.725396 176.582081,139.725396" id="Path" fill="#1D4354"></path>
                        <rect id="Rectangle" fill="#6FDA44" x="105.696703" y="105.845092" width="52.3605206" height="15.8437258"></rect>
                        <path d="M157.5594,44.9480401 C157.5594,59.0363943 146.127622,70.4581086 132.026856,70.4581086 C117.926089,70.4581086 106.496128,59.0363943 106.496128,44.9480401 C106.496128,30.8596858 117.926089,19.4379715 132.026856,19.4379715 C146.127622,19.4379715 157.5594,30.8596858 157.5594,44.9480401" id="Path" fill="#F9F9F9"></path>
                        <path d="M140.838699,42.4701888 C140.838699,47.080989 137.097754,50.822272 132.481074,50.822272 C127.866212,50.822272 124.121633,47.080989 124.121633,42.4701888 C124.121633,37.8593887 127.866212,34.1144751 132.481074,34.1144751 C137.097754,34.1162903 140.838699,37.8593887 140.838699,42.4701888" id="Path" fill="#B2B2B2"></path>
                        <path d="M139.897558,51.6010253 C138.149724,53.0223861 135.991277,53.949992 133.623889,54.1769014 C133.247796,54.2259139 132.866252,54.2549583 132.475624,54.2549583 C132.083179,54.2549583 131.696184,54.2222833 131.318274,54.1769014 C128.959971,53.9445461 126.805157,53.0133097 125.064591,51.59921 C120.040931,53.8991642 116.285451,58.4446144 115.05906,63.9721288 C119.573994,67.9929643 125.502457,70.4581086 132.025039,70.4581086 C138.912812,70.4581086 145.150144,67.7188577 149.745021,63.2914004 C148.375097,58.0761135 144.714094,53.8102157 139.897558,51.6010253" id="Path" fill="#B2B2B2"></path>
                        <path d="M106.579704,86.1820262 L107.707984,82.9344981 C107.724336,82.8909315 107.786109,82.8909315 107.802461,82.9344981 L108.903487,86.1493512 C108.910755,86.167504 108.927107,86.1820262 108.947092,86.1820262 L112.190214,86.2854969 C112.235636,86.2891275 112.253805,86.345401 112.221101,86.3744454 L109.682927,88.538254 C109.666575,88.5509609 109.662941,88.5727442 109.666575,88.5890817 L110.564111,91.798489 C110.576829,91.8438709 110.527774,91.8783612 110.489619,91.8547626 L107.782476,90.0667161 C107.766124,90.0540091 107.744321,90.0540091 107.727969,90.0667161 L105.044445,91.8547626 C105.004474,91.8783612 104.955418,91.8438709 104.966319,91.798489 L105.849321,88.558222 C105.851137,88.538254 105.849321,88.5182859 105.831152,88.5073943 L103.283893,86.4470564 C103.245739,86.418012 103.263907,86.3599232 103.309329,86.3581079 L106.534282,86.2183317 C106.552451,86.2165164 106.572437,86.1983637 106.579704,86.1820262" id="Path" fill="#F2F2F2"></path>
                        <path d="M118.745499,86.1820262 L119.875596,82.9344981 C119.891947,82.8909315 119.951904,82.8909315 119.966439,82.9344981 L121.071099,86.1493512 C121.074733,86.167504 121.094719,86.1820262 121.116521,86.1820262 L124.356009,86.2854969 C124.401431,86.2891275 124.4196,86.345401 124.388713,86.3744454 L121.848722,88.538254 C121.83237,88.5509609 121.828736,88.5727442 121.83237,88.5890817 L122.729906,91.798489 C122.742624,91.8438709 122.693569,91.8783612 122.655414,91.8547626 L119.948271,90.0667161 C119.930102,90.0540091 119.910116,90.0540091 119.893764,90.0667161 L117.206606,91.8547626 C117.170269,91.8783612 117.117579,91.8438709 117.130297,91.798489 L118.016932,88.558222 C118.016932,88.538254 118.011482,88.5182859 117.998764,88.5073943 L115.451505,86.4470564 C115.413351,86.418012 115.431519,86.3599232 115.475124,86.3581079 L118.700077,86.2183317 C118.720063,86.2165164 118.740049,86.1983637 118.745499,86.1820262" id="Path" fill="#F2F2F2"></path>
                        <path d="M130.913111,86.1820262 L132.039574,82.9344981 C132.057742,82.8909315 132.119516,82.8909315 132.134051,82.9344981 L133.236894,86.1493512 C133.244162,86.167504 133.262331,86.1820262 133.282316,86.1820262 L136.523621,86.2854969 C136.567226,86.2891275 136.589029,86.345401 136.556325,86.3744454 L134.014517,88.538254 C134.001799,88.5509609 133.996348,88.5727442 134.001799,88.5890817 L134.899335,91.798489 C134.908419,91.8438709 134.861181,91.8783612 134.823026,91.8547626 L132.115882,90.0667161 C132.099531,90.0540091 132.077728,90.0540091 132.059559,90.0667161 L129.374218,91.8547626 C129.336064,91.8783612 129.287008,91.8438709 129.301543,91.798489 L130.182727,88.558222 C130.184544,88.538254 130.182727,88.5182859 130.166376,88.5073943 L127.615483,86.4470564 C127.577329,86.418012 127.600948,86.3599232 127.644553,86.3581079 L130.867689,86.2183317 C130.887675,86.2165164 130.907661,86.1983637 130.913111,86.1820262" id="Path" fill="#F2F2F2"></path>
                        <path d="M143.078906,86.1820262 L144.205369,82.9344981 C144.221721,82.8909315 144.285311,82.8909315 144.298029,82.9344981 L145.402689,86.1493512 C145.40814,86.167504 145.428126,86.1820262 145.446294,86.1820262 L148.689416,86.2854969 C148.733021,86.2891275 148.754824,86.345401 148.720303,86.3744454 L146.182129,88.538254 C146.165777,88.5509609 146.160326,88.5727442 146.165777,88.5890817 L147.063313,91.798489 C147.074214,91.8438709 147.025159,91.8783612 146.988821,91.8547626 L144.281678,90.0667161 C144.263509,90.0540091 144.243523,90.0540091 144.227171,90.0667161 L141.540013,91.8547626 C141.501859,91.8783612 141.452803,91.8438709 141.467338,91.798489 L142.346706,88.558222 C142.352156,88.538254 142.346706,88.5182859 142.330354,88.5073943 L139.781278,86.4470564 C139.744941,86.418012 139.764926,86.3599232 139.812165,86.3581079 L143.033484,86.2183317 C143.05347,86.2165164 143.071639,86.1983637 143.078906,86.1820262" id="Path" fill="#F2F2F2"></path>
                        <path d="M155.246518,86.1820262 L156.372981,82.9344981 C156.389332,82.8909315 156.452923,82.8909315 156.465641,82.9344981 L157.568484,86.1493512 C157.573935,86.167504 157.593921,86.1820262 157.613906,86.1820262 L160.855211,86.2854969 C160.898816,86.2891275 160.920619,86.345401 160.886098,86.3744454 L158.347924,88.538254 C158.329755,88.5509609 158.327938,88.5727442 158.329755,88.5890817 L159.230925,91.798489 C159.240009,91.8438709 159.192771,91.8783612 159.154616,91.8547626 L156.445656,90.0667161 C156.429304,90.0540091 156.407501,90.0540091 156.392966,90.0667161 L153.707625,91.8547626 C153.669471,91.8783612 153.616781,91.8438709 153.631316,91.798489 L154.514317,88.558222 C154.517951,88.538254 154.510684,88.5182859 154.497966,88.5073943 L151.947073,86.4470564 C151.910736,86.418012 151.930721,86.3599232 151.97796,86.3581079 L155.199279,86.2183317 C155.221082,86.2165164 155.237434,86.1983637 155.246518,86.1820262" id="Path" fill="#F2F2F2"></path>
                    </g>
                </g>
            </g>
        </g>
    </g>
</svg>